<?xml version="1.0" encoding="UTF-8" standalone="no"?>
<svg width="20px" height="23px" viewBox="0 0 20 23" version="1.1" xmlns="http://www.w3.org/2000/svg" xmlns:xlink="http://www.w3.org/1999/xlink">
    <!-- Generator: Sketch 41 (35326) - http://www.bohemiancoding.com/sketch -->
    <title>icon_bell</title>
    <desc>Created with Sketch.</desc>
    <defs>
        <polygon id="path-1" points="9.58325 23 19.166 23 19.166 0 9.58325 0 0.0005 0 0.0005 23"></polygon>
    </defs>
    <g id="Account-Settings" stroke="none" stroke-width="1" fill="none" fill-rule="evenodd">
        <g id="Account-Settings-Connected-Accounts" transform="translate(-1162.000000, -26.000000)">
            <g id="topHeader">
                <g id="profile-info" transform="translate(1079.000000, 13.000000)">
                    <g id="Reminder" transform="translate(83.000000, 7.000000)">
                        <g id="icon_bell" transform="translate(0.000000, 6.000000)">
                            <mask id="mask-2" fill="white">
                                <use xlink:href="#path-1"></use>
                            </mask>
                            <g id="Clip-2"></g>
                            <path d="M7.1875,17.25 C6.9775,17.166 6.7495,17.174 6.5425,17.25 L3.8325,17.25 C4.4285,16.244 4.7915,14.911 4.7915,13.417 L4.7915,9.583 C4.7915,6.9 6.9005,4.792 9.5835,4.792 C12.2665,4.792 14.3745,6.9 14.3745,9.583 L14.3745,13.417 C14.3745,14.911 14.7385,16.244 15.3335,17.25 L7.1875,17.25 Z M9.5835,21.083 C8.5295,21.083 7.6665,20.221 7.6665,19.167 L11.4995,19.167 C11.4995,20.221 10.6375,21.083 9.5835,21.083 L9.5835,21.083 Z M16.2915,13.417 L16.2915,9.583 C16.2915,6.172 13.8165,3.398 10.5415,2.941 L10.5415,0.958 C10.5415,0.384 10.1585,0 9.5835,0 C9.0075,0 8.6245,0.384 8.6245,0.958 L8.6245,2.941 C5.3505,3.398 2.8755,6.172 2.8755,9.583 L2.8755,13.417 C2.8755,15.621 1.8205,17.25 0.9585,17.25 C0.6705,17.25 0.4315,17.346 0.2635,17.514 C0.0955,17.682 0.0005,17.921 0.0005,18.208 C0.0005,18.783 0.3825,19.167 0.9585,19.167 L5.7505,19.167 C5.7505,21.275 7.4745,23 9.5835,23 C11.6915,23 13.4165,21.275 13.4165,19.263 L13.4165,19.167 L18.2085,19.167 C18.4965,19.167 18.7355,19.071 18.9035,18.903 C19.0705,18.735 19.1665,18.496 19.1665,18.208 C19.1665,17.634 18.7835,17.25 18.2085,17.25 C17.3455,17.25 16.2915,15.621 16.2915,13.417 Z" id="Fill-1" fill="#C1C0C1" mask="url(#mask-2)"></path>
                        </g>
                    </g>
                </g>
            </g>
        </g>
    </g>
</svg>