<?xml version="1.0" encoding="UTF-8" standalone="no"?>
<svg width="22px" height="22px" viewBox="0 0 22 22" version="1.1" xmlns="http://www.w3.org/2000/svg" xmlns:xlink="http://www.w3.org/1999/xlink">
    <title>icon_life_buoy</title>
    <defs></defs>
    <g id="Account-Settings" stroke="none" stroke-width="1" fill="none" fill-rule="evenodd">
        <g id="Account-Settings-Connected-Accounts" transform="translate(-1083.000000, -27.000000)" fill="#C1C0C1">
            <g id="topHeader">
                <g id="profile-info" transform="translate(1079.000000, 13.000000)">
                    <g id="Help" transform="translate(4.000000, 14.000000)">
                        <path d="M13.752,20.2251 L13.752,16.5021 C13.752,16.3901 13.723,16.2871 13.676,16.1931 C14.754,15.6351 15.636,14.7531 16.192,13.6751 C16.286,13.7221 16.391,13.7511 16.502,13.7511 L20.226,13.7511 C19.3,16.8511 16.852,19.3001 13.752,20.2251 M9.626,20.5291 L9.626,16.6751 C10.068,16.7831 10.527,16.8461 11.002,16.8461 C11.477,16.8461 11.935,16.7831 12.377,16.6751 L12.377,20.5291 C11.928,20.5931 11.469,20.6281 11.002,20.6281 C10.535,20.6281 10.075,20.5931 9.626,20.5291 M1.778,13.7511 L5.501,13.7511 C5.613,13.7511 5.717,13.7221 5.811,13.6751 C6.368,14.7531 7.25,15.6351 8.328,16.1931 C8.28,16.2871 8.251,16.3901 8.251,16.5021 L8.251,20.2251 C5.151,19.3001 2.704,16.8511 1.778,13.7511 M1.375,11.0011 C1.375,10.5351 1.411,10.0761 1.476,9.6261 L5.327,9.6261 C5.22,10.0681 5.157,10.5271 5.157,11.0011 C5.157,11.4761 5.22,11.9351 5.327,12.3761 L1.476,12.3761 C1.411,11.9281 1.375,11.4691 1.375,11.0011 M8.251,1.7781 L8.251,5.5001 C8.251,5.6131 8.28,5.7171 8.328,5.8101 C7.25,6.3681 6.368,7.2501 5.811,8.3281 C5.717,8.2811 5.613,8.2511 5.501,8.2511 L1.778,8.2511 C2.704,5.1521 5.151,2.7041 8.251,1.7781 M12.377,1.4751 L12.377,5.3271 C11.935,5.2201 11.477,5.1571 11.002,5.1571 C10.527,5.1571 10.068,5.2201 9.626,5.3271 L9.626,1.4751 C10.075,1.4111 10.535,1.3751 11.002,1.3751 C11.469,1.3751 11.928,1.4111 12.377,1.4751 M11.002,15.4711 C8.537,15.4711 6.532,13.4661 6.532,11.0011 C6.532,8.5371 8.537,6.5321 11.002,6.5321 C13.466,6.5321 15.471,8.5371 15.471,11.0011 C15.471,13.4661 13.466,15.4711 11.002,15.4711 M16.676,9.6261 L20.528,9.6261 C20.593,10.0761 20.628,10.5351 20.628,11.0011 C20.628,11.4691 20.593,11.9281 20.528,12.3761 L16.676,12.3761 C16.783,11.9351 16.846,11.4761 16.846,11.0011 C16.846,10.5271 16.783,10.0681 16.676,9.6261 M20.226,8.2511 L16.502,8.2511 C16.391,8.2511 16.286,8.2811 16.192,8.3281 C15.636,7.2501 14.754,6.3681 13.676,5.8101 C13.723,5.7171 13.752,5.6131 13.752,5.5001 L13.752,1.7781 C16.852,2.7041 19.3,5.1521 20.226,8.2511 M11.002,0.0001 C4.936,0.0001 0,4.9351 0,11.0011 C0,17.0681 4.936,22.0031 11.002,22.0031 C17.067,22.0031 22.003,17.0681 22.003,11.0011 C22.003,4.9351 17.067,0.0001 11.002,0.0001" id="icon_life_buoy"></path>
                    </g>
                </g>
            </g>
        </g>
    </g>
</svg>
