<?xml version="1.0" encoding="UTF-8" standalone="no"?>
<svg width="22px" height="17px" viewBox="0 0 22 17" version="1.1" xmlns="http://www.w3.org/2000/svg" xmlns:xlink="http://www.w3.org/1999/xlink">
    <defs>
        <polygon id="path-1" points="22.002 16.2617 22.002 -0.0003 11.00115 -0.0003 0.0003 -0.0003 0.0003 16.2617 11.00115 16.2617"></polygon>
    </defs>
    <g id="My-Videos" stroke="none" stroke-width="1" fill="none" fill-rule="evenodd">
        <g id="My-Videos-(hover-item)" transform="translate(-25.000000, -388.000000)">
            <g id="expanded-left-dock" transform="translate(0.000000, 76.000000)">
                <g id="Main-Navigation-(left-panel)" transform="translate(0.000000, 293.000000)">
                    <g id="Nav---Video-Projects">
                        <g id="Overview-(on)">
                            <g id="Page-1" transform="translate(25.000000, 19.000000)">
                                <mask id="mask-2" fill="white">
                                    <use xlink:href="#path-1"></use>
                                </mask>
                                <g id="Clip-2"></g>
                                <path d="M6.6963,15.3047 L15.3053,15.3047 C15.5693,15.3047 15.7843,15.5197 15.7843,15.7837 C15.7843,16.0477 15.5693,16.2617 15.3053,16.2617 L6.6963,16.2617 C6.4323,16.2617 6.2173,16.0477 6.2173,15.7837 C6.2173,15.5197 6.4323,15.3047 6.6963,15.3047 L6.6963,15.3047 Z M9.5663,4.3047 C9.6693,4.3047 9.7583,4.3437 9.8353,4.3987 L13.5513,6.7287 C13.7373,6.7947 13.8703,6.9667 13.8703,7.1737 C13.8703,7.3297 13.7923,7.4607 13.6763,7.5487 L9.8633,9.9317 C9.7813,9.9977 9.6803,10.0437 9.5663,10.0437 C9.3013,10.0437 9.0883,9.8297 9.0883,9.5667 L9.0883,4.7837 C9.0883,4.5187 9.3013,4.3047 9.5663,4.3047 L9.5663,4.3047 Z M0.9573,13.3927 L21.0463,13.3927 L21.0463,0.9567 L0.9573,0.9567 L0.9573,13.3927 Z M21.5233,14.3487 L0.4783,14.3487 C0.2143,14.3487 0.0003,14.1347 0.0003,13.8707 L0.0003,0.4787 C0.0003,0.2137 0.2143,-0.0003 0.4783,-0.0003 L21.5233,-0.0003 C21.7883,-0.0003 22.0023,0.2137 22.0023,0.4787 L22.0023,13.8707 C22.0023,14.1347 21.7883,14.3487 21.5233,14.3487 L21.5233,14.3487 Z" id="Fill-1" fill="#0EBAED" mask="url(#mask-2)"></path>
                            </g>
                        </g>
                    </g>
                </g>
            </g>
        </g>
    </g>
</svg>
